<svg width="20" height="16" viewBox="0 0 20 16" fill="none" xmlns="http://www.w3.org/2000/svg">
<path fill-rule="evenodd" clip-rule="evenodd" d="M3 2C2.73478 2 2.48043 2.10536 2.29289 2.29289C2.10536 2.48043 2 2.73478 2 3V13C2 13.2652 2.10536 13.5196 2.29289 13.7071C2.48043 13.8946 2.73478 14 3 14H17C17.2652 14 17.5196 13.8946 17.7071 13.7071C17.8946 13.5196 18 13.2652 18 13V5C18 4.73478 17.8946 4.48043 17.7071 4.29289C17.5196 4.10536 17.2652 4 17 4H11C10.7348 4 10.4804 3.89464 10.2929 3.70711L8.58579 2H3ZM0.87868 0.87868C1.44129 0.31607 2.20435 0 3 0H9C9.26522 0 9.51957 0.105357 9.70711 0.292893L11.4142 2H17C17.7957 2 18.5587 2.31607 19.1213 2.87868C19.6839 3.44129 20 4.20435 20 5V13C20 13.7957 19.6839 14.5587 19.1213 15.1213C18.5587 15.6839 17.7957 16 17 16H3C2.20435 16 1.44129 15.6839 0.87868 15.1213C0.31607 14.5587 0 13.7956 0 13V3C0 2.20435 0.31607 1.44129 0.87868 0.87868ZM10 5C10.5523 5 11 5.44772 11 6V8H13C13.5523 8 14 8.44772 14 9C14 9.55229 13.5523 10 13 10H11V12C11 12.5523 10.5523 13 10 13C9.44771 13 9 12.5523 9 12V10H7C6.44772 10 6 9.55229 6 9C6 8.44772 6.44772 8 7 8H9V6C9 5.44772 9.44771 5 10 5Z" fill="#3C6E71"/>
</svg>
