<svg width="20" height="20" viewBox="0 0 20 20" fill="none" xmlns="http://www.w3.org/2000/svg">
<path fill-rule="evenodd" clip-rule="evenodd" d="M7.24405 2.48969C6.16423 2.88595 5.17209 3.5142 4.34315 4.34315C3.08052 5.60577 2.28353 7.247 2.06272 9H6.01766C6.09487 6.82653 6.42174 4.84474 6.92993 3.32004C7.02603 3.03172 7.1306 2.7537 7.24405 2.48969ZM10 0C7.34784 0 4.8043 1.05357 2.92893 2.92893C1.05357 4.8043 0 7.34784 0 10C0 12.6522 1.05357 15.1957 2.92893 17.0711C4.8043 18.9464 7.34784 20 10 20C12.6522 20 15.1957 18.9464 17.0711 17.0711C18.9464 15.1957 20 12.6522 20 10C20 7.34784 18.9464 4.8043 17.0711 2.92893C15.1957 1.05357 12.6522 0 10 0ZM10 2C9.99991 2 10.0001 2 10 2C10.0012 2.00001 10.0059 2.00018 10.0153 2.00306C10.0264 2.00645 10.0485 2.01483 10.0814 2.03508C10.1506 2.07753 10.2546 2.16411 10.3824 2.32629C10.6426 2.65651 10.9207 3.19631 11.1727 3.95246C11.6028 5.24281 11.9045 7.00297 11.981 9H8.01901C8.09547 7.00297 8.39723 5.24281 8.82732 3.95246C9.07935 3.19631 9.35742 2.65651 9.61764 2.32629C9.74544 2.16411 9.8494 2.07753 9.91855 2.03508C9.95154 2.01483 9.97355 2.00645 9.9847 2.00306C9.99478 1.99998 9.99911 2 10 2ZM6.01766 11H2.06272C2.28353 12.753 3.08052 14.3942 4.34315 15.6569C5.17209 16.4858 6.16423 17.114 7.24404 17.5103C7.1306 17.2463 7.02603 16.9683 6.92993 16.68C6.42174 15.1553 6.09487 13.1735 6.01766 11ZM9.99977 18C9.9986 18 9.99428 17.9999 9.9847 17.9969C9.97355 17.9935 9.95154 17.9852 9.91855 17.9649C9.8494 17.9225 9.74544 17.8359 9.61764 17.6737C9.35742 17.3435 9.07935 16.8037 8.82732 16.0475C8.39723 14.7572 8.09547 12.997 8.01901 11H11.981C11.9045 12.997 11.6028 14.7572 11.1727 16.0475C10.9207 16.8037 10.6426 17.3435 10.3824 17.6737C10.2546 17.8359 10.1506 17.9225 10.0814 17.9649C10.0485 17.9852 10.0264 17.9935 10.0153 17.9969C10.0144 17.9972 10.0135 17.9975 10.0127 17.9977C10.0045 18 10.0006 18 9.99977 18C10.9492 18 11.8814 17.8312 12.756 17.5103C13.8358 17.114 14.8279 16.4858 15.6569 15.6569C16.9195 14.3942 17.7165 12.753 17.9373 11H13.9823C13.9051 13.1735 13.5783 15.1553 13.0701 16.68C12.974 16.9683 12.8694 17.2463 12.756 17.5103M13.9823 9C13.9051 6.82653 13.5783 4.84474 13.0701 3.32004C12.974 3.03172 12.8694 2.7537 12.756 2.48969C13.8358 2.88595 14.8279 3.5142 15.6569 4.34315C16.9195 5.60577 17.7165 7.247 17.9373 9H13.9823Z" fill="#AEAEAE"/>
<path d="M10.0127 17.9977C10.0045 18 10.0006 18 9.99977 18C10.9492 18 11.8814 17.8312 12.756 17.5103L10.0127 17.9977Z" fill="#AEAEAE"/>
</svg>
