<svg width="18" height="20" viewBox="0 0 18 20" fill="none" xmlns="http://www.w3.org/2000/svg">
<path fill-rule="evenodd" clip-rule="evenodd" d="M7 2C6.73478 2 6.48043 2.10536 6.29289 2.29289C6.10536 2.48043 6 2.73478 6 3V13C6 13.2652 6.10536 13.5196 6.29289 13.7071C6.48043 13.8946 6.73478 14 7 14H15C15.2652 14 15.5196 13.8946 15.7071 13.7071C15.8946 13.5196 16 13.2652 16 13V6.41421L11.5859 2.00011L7 2ZM4.87868 0.87868C5.44129 0.31607 6.20435 0 7 0H11.586C12.1163 0.000113308 12.6251 0.210861 13.0001 0.585893M13.0001 0.585893L17.414 4.99979C17.414 4.99975 17.414 4.99982 17.414 4.99979C17.789 5.37476 17.9999 5.88345 18 6.41379V13C18 13.7957 17.6839 14.5587 17.1213 15.1213C16.5587 15.6839 15.7957 16 15 16H14V17C14 17.7957 13.6839 18.5587 13.1213 19.1213C12.5587 19.6839 11.7957 20 11 20H3C2.20435 20 1.44129 19.6839 0.87868 19.1213C0.31607 18.5587 0 17.7957 0 17V7C0 6.20435 0.31607 5.44129 0.87868 4.87868C1.44129 4.31607 2.20435 4 3 4H4V3C4 2.20435 4.31607 1.44129 4.87868 0.87868M4 6H3C2.73478 6 2.48043 6.10536 2.29289 6.29289C2.10536 6.48043 2 6.73478 2 7V17C2 17.2652 2.10536 17.5196 2.29289 17.7071C2.48043 17.8946 2.73478 18 3 18H11C11.2652 18 11.5196 17.8946 11.7071 17.7071C11.8946 17.5196 12 17.2652 12 17V16H7C6.20435 16 5.44129 15.6839 4.87868 15.1213C4.31607 14.5587 4 13.7957 4 13V6Z" fill="#242424"/>
</svg>
