<svg width="928" height="845" viewBox="0 0 928 845" fill="none" xmlns="http://www.w3.org/2000/svg" preserveAspectRatio="xMidYMid meet">
<path d="M863.844 35.2395C824.053 3.86129 768.724 -0.970147 719.909 0.986692C651 3.68442 582.883 20.7712 517.771 42.4386C443.335 67.2709 371.227 99.4586 302.436 137.141C237.481 172.812 174.743 213.524 118.535 261.832C76.0633 298.431 33.0385 341.286 10.5694 393.459C-34.5827 498.036 75.1519 601.083 149.695 658.673C229.561 720.371 321.636 767.041 416.496 801.064C483.436 825.127 563.903 852.205 636.235 842.825C643.681 841.946 650.999 840.199 658.039 837.619C826.947 771.026 1033.95 169.796 863.844 35.2395Z" fill="#F5F5F5" fill-opacity="0.5"/>
<path d="M880.719 185.849C854.482 152.374 810.313 137.472 770.113 129.397C713.377 117.945 654.436 118.385 597.039 123.157C531.41 128.662 466.223 140.628 402.652 157.733C342.609 173.957 283.374 194.732 227.961 222.995C186.07 244.431 142.489 270.858 113.827 308.958C56.2828 385.305 125.366 491.089 174.752 552.827C227.667 618.97 293.516 675.276 364.142 721.818C413.97 754.706 474.233 792.732 535.085 799.413C541.332 800.171 547.646 800.196 553.899 799.486C704.852 778.638 992.794 329.293 880.719 185.849Z" fill="#F5F5F5"/>
<path d="M680.82 668.228H808.476C822.88 668.228 830.156 657.878 832.214 639.965" stroke="#163F41" stroke-width="3" stroke-miterlimit="10" stroke-linecap="round"/>
<path d="M341.506 676.524H652.672" stroke="#163F41" stroke-width="3" stroke-miterlimit="10" stroke-linecap="round"/>
<path d="M312.109 693.188H682.069" stroke="#163F41" stroke-width="3" stroke-miterlimit="10" stroke-linecap="round"/>
<path d="M166.374 635.12C167.991 654.207 168.799 668.228 186.144 668.228H310.786" stroke="#163F41" stroke-width="3" stroke-miterlimit="10" stroke-linecap="round"/>
<path d="M179.235 609.06L228.402 544.679" stroke="#163F41" stroke-width="3" stroke-miterlimit="10" stroke-linecap="round"/>
<path d="M826.702 618.163L815.237 603.04" stroke="#163F41" stroke-width="3" stroke-miterlimit="10" stroke-linecap="round"/>
<path d="M175.34 344.122V401.749C175.34 404.65 176.494 407.432 178.547 409.483C180.601 411.535 183.386 412.687 186.291 412.687" stroke="#163F41" stroke-width="3.14" stroke-miterlimit="10" stroke-linecap="round"/>
<path d="M760.559 258.966H797.232C798.67 258.966 800.093 259.249 801.422 259.798C802.751 260.348 803.958 261.154 804.975 262.169C805.991 263.185 806.798 264.391 807.348 265.718C807.899 267.045 808.182 268.467 808.182 269.904V324.815" stroke="#163F41" stroke-width="3.14" stroke-miterlimit="10" stroke-linecap="round"/>
<path d="M620.777 200.825H725.724" stroke="#163F41" stroke-width="3" stroke-miterlimit="10" stroke-linecap="round"/>
<path d="M235.163 268.509V215.58C235.163 211.667 236.719 207.914 239.49 205.147C242.26 202.379 246.017 200.825 249.935 200.825H309.757" stroke="#163F41" stroke-width="3" stroke-miterlimit="10" stroke-linecap="round"/>
<path d="M235.163 504.964V415.991" stroke="#163F41" stroke-width="3" stroke-miterlimit="10" stroke-linecap="round"/>
<path d="M760.485 395.289V438.454" stroke="#163F41" stroke-width="3" stroke-miterlimit="10" stroke-linecap="round"/>
<path d="M449.099 200.311C462.262 189.381 478.728 183.2 495.84 182.766H499.808C517.191 183.188 533.9 189.564 547.137 200.825" stroke="#163F41" stroke-width="3" stroke-miterlimit="10" stroke-linecap="round"/>
<path d="M462.18 206.991C471.643 199.092 483.511 194.64 495.84 194.365H498.633C511.18 194.644 523.249 199.233 532.806 207.358" stroke="#163F41" stroke-width="3" stroke-miterlimit="10" stroke-linecap="round"/>
<path d="M812.297 625.944L182.395 624.843V637.763C183.865 650.683 193.272 659.933 202.532 659.933H794.071C802.89 659.933 810.607 651.271 812.518 639.158L812.297 625.944Z" fill="#A2ABB0"/>
<path d="M814.649 629.908H180.999L182.395 638.864C183.096 643.325 185.37 647.39 188.806 650.324C192.242 653.258 196.615 654.87 201.136 654.868H793.851C798.153 654.861 802.326 653.398 805.689 650.719C809.052 648.039 811.408 644.3 812.371 640.112L814.649 629.908Z" fill="#163F41"/>
<path d="M808.255 635.12H187.393C186.171 635.107 184.976 634.755 183.942 634.105C182.908 633.455 182.074 632.531 181.534 631.436C180.993 630.341 180.767 629.118 180.88 627.902C180.993 626.686 181.442 625.526 182.175 624.549L249.2 536.677C251.558 533.598 254.594 531.102 258.074 529.383C261.553 527.665 265.382 526.769 269.263 526.767H726.385C730.266 526.769 734.095 527.665 737.574 529.383C741.054 531.102 744.09 533.598 746.448 536.677L813.473 624.549C814.207 625.526 814.655 626.686 814.768 627.902C814.881 629.118 814.655 630.341 814.115 631.436C813.574 632.531 812.74 633.455 811.706 634.105C810.672 634.755 809.477 635.107 808.255 635.12Z" fill="#285A5B"/>
<path d="M756.517 598.268H238.984C238.511 598.256 238.05 598.117 237.649 597.867C237.247 597.616 236.921 597.262 236.703 596.842C236.485 596.422 236.384 595.951 236.411 595.479C236.437 595.007 236.59 594.551 236.853 594.157L242.145 586.082L242.88 584.981L249.788 574.337L250.523 573.235L257.505 562.591L258.239 561.49L263.898 552.827L264.633 551.653L270.292 542.99L271.027 541.889L273.746 537.778C273.972 537.417 274.286 537.12 274.659 536.914C275.032 536.709 275.452 536.602 275.878 536.604H717.86C718.289 536.595 718.714 536.69 719.098 536.882C719.483 537.074 719.814 537.356 720.065 537.705L722.931 541.889L723.666 542.99L729.619 551.653L730.354 552.827L736.306 561.49L737.041 562.591L744.317 573.235L745.125 574.337L752.401 584.981L753.136 586.082L758.648 594.157C758.911 594.551 759.064 595.007 759.09 595.479C759.117 595.951 759.016 596.422 758.798 596.842C758.58 597.262 758.254 597.616 757.853 597.867C757.451 598.117 756.99 598.256 756.517 598.268Z" fill="#163F41"/>
<path d="M753.136 586.082L752.401 584.981H692.873L687.875 574.337H745.125L744.317 573.235H678.982L674.352 562.591H737.041L736.306 561.49H705.807L700.957 552.827H730.354L729.619 551.653H686.111L682.951 542.99H723.666L722.931 541.889H605.931V536.604H604.461V541.889H563.967V536.604H562.497V541.889H538.098L538.245 536.604H536.995L536.702 541.889H511.42V536.604H509.95V541.889H485.33V536.604H483.861V541.889H458.873V536.604H457.403V541.889H431.828V536.604H430.652L430.358 541.889H405.812L406.694 536.604H405.224L404.269 541.889H378.326L379.722 536.604H378.252L376.782 541.889H351.722L353.265 536.604H351.722L350.178 541.889H325.999L327.837 536.604H326.293L324.382 541.889H298.513L300.938 536.604H299.322L296.896 541.889H271.027L270.292 542.99H296.382L292.487 551.653H264.633L263.898 552.827H300.938L297.631 561.49H258.239L257.505 562.591H312.33L308.214 573.235H250.523L249.788 574.337H319.238L315.196 584.981H242.88L242.145 586.082H278.009L272.497 598.268H274.114L279.626 586.082H312.33L309.096 598.268H310.639L313.8 586.082H347.092L343.858 598.268H345.401L348.635 586.082H382.221L379.722 598.268H381.339L383.764 586.082H562.424V598.268H563.894V586.082H602.11L603.359 598.268H604.829L603.579 586.082H654.289L656.788 598.268H658.331L655.759 586.082H711.246L716.243 598.268H717.86L712.862 586.082H753.136ZM677.366 573.235H622.247L620.483 562.591H672.736L677.366 573.235ZM495.399 561.49V552.827H526.927V561.49H495.399ZM512.523 562.591V573.235H478.79V562.591H512.523ZM513.992 562.591H545.521V573.235H513.992V562.591ZM528.397 561.49V552.827H561.174V561.49H528.397ZM546.99 562.591H579.18V573.235H546.99V562.591ZM562.644 561.49V552.827H608.136L608.871 561.49H562.644ZM580.65 562.591H619.013L620.777 573.162H580.65V562.591ZM609.606 552.827H655.832L657.964 561.49H610.341L609.606 552.827ZM699.56 552.827L704.19 561.49H659.507L657.376 552.827H699.56ZM681.408 542.99L684.641 551.653H628.567L627.244 542.99H681.408ZM588.293 542.99H625.774L627.097 551.653H588.293V542.99ZM549.93 542.99H586.823V551.653H549.93V542.99ZM518.549 542.99H548.46V551.653H518.549V542.99ZM486.727 542.99H517.079V551.653H486.727V542.99ZM493.929 552.827V561.49H463.062V552.827H493.929ZM364.215 561.49H331.879L335.48 552.827H366.787L364.215 561.49ZM368.331 552.827H398.61L396.919 561.49H365.759L368.331 552.827ZM377.444 562.591L375.019 573.235H343.858L346.798 562.591H377.444ZM378.987 562.591H411.397L410.589 573.235H376.488L378.987 562.591ZM398.389 561.49L400.079 552.827H429.476L428.962 561.49H398.389ZM412.867 562.591H443.954V573.235H412.059L412.867 562.591ZM430.432 561.49L430.799 552.827H461.592V561.49H430.432ZM445.424 562.591H477.32V573.235H445.424V562.591ZM454.39 542.99H485.257V551.653H454.39V542.99ZM422.936 542.99H452.92V551.653H421.98L422.936 542.99ZM421.392 542.99L420.437 551.653H389.57L391.701 542.99H421.392ZM390.231 542.99L388.027 551.653H357.013L360.394 542.99H390.231ZM358.777 542.99L355.396 551.653H325.779L329.159 542.99H358.777ZM294.104 551.653L297.999 542.99H327.543L324.235 551.653H294.104ZM299.248 561.49L302.482 552.827H333.863L330.335 561.49H299.248ZM309.757 573.235L313.947 562.591H345.254L342.315 573.235H309.757ZM316.739 584.981L320.781 574.337H355.102L352.31 584.981H316.739ZM353.853 584.981L356.572 574.337H387.953L386.116 584.981H353.853ZM421.613 584.981H387.586L389.423 574.337H422.274L421.613 584.981ZM456.007 584.981H423.083L423.744 574.337H456.007V584.981ZM491.283 584.981H457.477V574.337H491.283V584.981ZM526.927 584.981H492.753V574.337H526.927V584.981ZM559.852 584.981H528.397V574.337H559.852V584.981ZM561.321 584.981V574.337H596.892L597.112 584.981H561.321ZM603.506 584.981H597.847L598.582 584.834V574.337H642.31L641.575 574.483L643.706 584.981H603.506ZM645.176 584.981L643.045 574.337H686.185L691.256 584.981H645.176Z" fill="#3F6F71"/>
<path d="M568.377 627.633H428.741C425.655 627.633 423.376 625.063 423.964 622.274L424.699 618.676L424.92 617.575L427.272 606.637C427.539 605.584 428.158 604.653 429.027 603.999C429.895 603.345 430.961 603.007 432.049 603.04H565.878C567.008 603 568.116 603.362 569.004 604.061C569.892 604.76 570.503 605.751 570.728 606.857L572.419 617.575L572.639 618.676L573.227 622.494C573.668 625.21 571.39 627.633 568.377 627.633Z" fill="#163F41"/>
<path d="M572.639 618.676H424.699L424.92 617.575H572.419L572.639 618.676Z" fill="#3F6F71"/>
<path d="M498.633 618.676V627.559" stroke="#3F6F71" stroke-width="1.5" stroke-miterlimit="10"/>
<path d="M738.879 228.354V510.249C738.879 512.457 738.443 514.643 737.598 516.683C736.752 518.722 735.512 520.576 733.949 522.137C732.387 523.698 730.531 524.936 728.489 525.781C726.447 526.626 724.259 527.06 722.049 527.06H273.599C269.136 527.06 264.855 525.289 261.699 522.137C258.543 518.984 256.77 514.708 256.77 510.249V228.354C256.77 226.58 257.119 224.823 257.799 223.185C258.479 221.546 259.475 220.057 260.73 218.802C261.986 217.548 263.477 216.553 265.117 215.874C266.758 215.196 268.516 214.846 270.292 214.846H725.356C727.132 214.846 728.89 215.196 730.531 215.874C732.172 216.553 733.662 217.548 734.918 218.802C736.174 220.057 737.17 221.546 737.849 223.185C738.529 224.823 738.879 226.58 738.879 228.354Z" fill="#163F41"/>
<path d="M725.724 236.429V511.13C725.733 511.773 725.615 512.411 725.376 513.007C725.136 513.603 724.781 514.146 724.329 514.604C723.878 515.062 723.34 515.425 722.746 515.673C722.153 515.921 721.516 516.049 720.873 516.049H276.465C275.16 516.049 273.907 515.531 272.984 514.608C272.06 513.686 271.542 512.435 271.542 511.13V236.429C271.542 235.124 272.06 233.873 272.984 232.951C273.907 232.029 275.16 231.51 276.465 231.51H720.873C721.516 231.51 722.153 231.638 722.746 231.886C723.34 232.134 723.878 232.498 724.329 232.955C724.781 233.413 725.136 233.956 725.376 234.552C725.615 235.148 725.733 235.786 725.724 236.429Z" fill="#F1F1F1"/>
<path d="M725.724 236.429V251.258H271.542V236.429C271.542 235.124 272.06 233.873 272.984 232.951C273.907 232.029 275.16 231.51 276.465 231.51H720.873C721.516 231.51 722.153 231.638 722.746 231.886C723.34 232.134 723.878 232.498 724.329 232.955C724.781 233.413 725.136 233.956 725.376 234.552C725.615 235.148 725.733 235.786 725.724 236.429Z" fill="#54626B"/>
<path d="M678.982 246.119H278.817C278.518 246.129 278.22 246.08 277.94 245.974C277.659 245.869 277.403 245.709 277.184 245.505C276.966 245.3 276.79 245.055 276.667 244.782C276.543 244.51 276.475 244.216 276.465 243.917V238.484C276.475 238.189 276.543 237.898 276.668 237.629C276.792 237.36 276.969 237.12 277.189 236.921C277.408 236.722 277.666 236.57 277.945 236.473C278.225 236.375 278.522 236.336 278.817 236.355H678.982C679.575 236.335 680.152 236.546 680.591 236.943C681.03 237.341 681.296 237.894 681.334 238.484V243.917C681.325 244.216 681.256 244.51 681.133 244.782C681.01 245.055 680.834 245.3 680.615 245.505C680.397 245.709 680.14 245.869 679.86 245.974C679.58 246.08 679.282 246.129 678.982 246.119Z" fill="#F1F1F1"/>
<path d="M693.093 244.651C695.001 244.651 696.547 243.106 696.547 241.2C696.547 239.295 695.001 237.75 693.093 237.75C691.185 237.75 689.639 239.295 689.639 241.2C689.639 243.106 691.185 244.651 693.093 244.651Z" fill="#F1F1F1"/>
<path d="M704.117 244.651C706.025 244.651 707.571 243.106 707.571 241.2C707.571 239.295 706.025 237.75 704.117 237.75C702.209 237.75 700.663 239.295 700.663 241.2C700.663 243.106 702.209 244.651 704.117 244.651Z" fill="#F1F1F1"/>
<path d="M715.067 244.651C716.975 244.651 718.521 243.106 718.521 241.2C718.521 239.295 716.975 237.75 715.067 237.75C713.159 237.75 711.613 239.295 711.613 241.2C711.613 243.106 713.159 244.651 715.067 244.651Z" fill="#F1F1F1"/>
<path d="M465.561 275.997H317.768V287.295H465.561V275.997Z" fill="#3F6F71"/>
<path d="M645.984 275.997H524.134V287.295H645.984V275.997Z" fill="#CECECE"/>
<path d="M360.394 287.816H190.994C188.802 287.816 187.025 289.591 187.025 291.78V396.434C187.025 398.623 188.802 400.398 190.994 400.398H360.394C362.585 400.398 364.362 398.623 364.362 396.434V291.78C364.362 289.591 362.585 287.816 360.394 287.816Z" fill="#54626B"/>
<path d="M358.042 293.982H193.346C191.195 293.982 189.451 295.724 189.451 297.873V394.334C189.451 396.483 191.195 398.225 193.346 398.225H358.042C360.193 398.225 361.937 396.483 361.937 394.334V297.873C361.937 295.724 360.193 293.982 358.042 293.982Z" fill="#A2ABB0"/>
<path d="M298.954 306.022H197.314C196.949 306.022 196.653 306.318 196.653 306.682V314.339C196.653 314.704 196.949 315 197.314 315H298.954C299.319 315 299.616 314.704 299.616 314.339V306.682C299.616 306.318 299.319 306.022 298.954 306.022Z" fill="#939AA0"/>
<path d="M316.96 328.779H197.461C197.015 328.779 196.653 329.141 196.653 329.587V337.008C196.653 337.454 197.015 337.816 197.461 337.816H316.96C317.406 337.816 317.768 337.454 317.768 337.008V329.587C317.768 329.141 317.406 328.779 316.96 328.779Z" fill="#939AA0"/>
<path d="M333.348 351.61H197.608C197.081 351.61 196.653 352.037 196.653 352.564V359.692C196.653 360.219 197.081 360.646 197.608 360.646H333.348C333.876 360.646 334.304 360.219 334.304 359.692V352.564C334.304 352.037 333.876 351.61 333.348 351.61Z" fill="#939AA0"/>
<path d="M349.811 374.367H197.755C197.146 374.367 196.653 374.86 196.653 375.468V382.302C196.653 382.911 197.146 383.404 197.755 383.404H349.811C350.42 383.404 350.913 382.911 350.913 382.302V375.468C350.913 374.86 350.42 374.367 349.811 374.367Z" fill="#939AA0"/>
<path d="M789.515 268.509H618.645C616.859 268.509 615.412 269.955 615.412 271.739V377.861C615.412 379.645 616.859 381.091 618.645 381.091H789.515C791.301 381.091 792.749 379.645 792.749 377.861V271.739C792.749 269.955 791.301 268.509 789.515 268.509Z" fill="#54626B"/>
<path d="M787.604 274.676H620.556C619.054 274.676 617.837 275.892 617.837 277.392V376.202C617.837 377.702 619.054 378.918 620.556 378.918H787.604C789.106 378.918 790.323 377.702 790.323 376.202V277.392C790.323 275.892 789.106 274.676 787.604 274.676Z" fill="#A2ABB0"/>
<path d="M781.357 283.044H689.492C689.208 283.044 688.977 283.274 688.977 283.558V289.38C688.977 289.663 689.208 289.894 689.492 289.894H781.357C781.641 289.894 781.872 289.663 781.872 289.38V283.558C781.872 283.274 781.641 283.044 781.357 283.044Z" fill="#939AA0"/>
<path d="M781.357 296.478H689.492C689.208 296.478 688.977 296.709 688.977 296.992V302.814C688.977 303.098 689.208 303.328 689.492 303.328H781.357C781.641 303.328 781.872 303.098 781.872 302.814V296.992C781.872 296.709 781.641 296.478 781.357 296.478Z" fill="#939AA0"/>
<path d="M781.357 309.913H689.492C689.208 309.913 688.977 310.143 688.977 310.426V316.248C688.977 316.532 689.208 316.762 689.492 316.762H781.357C781.641 316.762 781.872 316.532 781.872 316.248V310.426C781.872 310.143 781.641 309.913 781.357 309.913Z" fill="#939AA0"/>
<path d="M780.769 325.769H722.71C722.102 325.769 721.608 326.262 721.608 326.87V371.342C721.608 371.95 722.102 372.443 722.71 372.443H780.769C781.378 372.443 781.872 371.95 781.872 371.342V326.87C781.872 326.262 781.378 325.769 780.769 325.769Z" fill="#939AA0"/>
<path d="M618.131 380.9L365.318 400.428H356.352V498.944C356.352 500.813 357.095 502.606 358.418 503.927C359.741 505.249 361.536 505.992 363.407 505.992H632.241C634.113 505.992 635.907 505.249 637.23 503.927C638.553 502.606 639.297 500.813 639.297 498.944V381.047L618.131 380.9Z" fill="#A2ABB0"/>
<path d="M639.297 331.936C639.306 331.004 639.131 330.08 638.781 329.216C638.431 328.353 637.913 327.567 637.256 326.905C636.6 326.243 635.819 325.717 634.958 325.358C634.098 324.999 633.174 324.815 632.241 324.815H363.407C362.474 324.815 361.551 324.999 360.69 325.358C359.829 325.717 359.048 326.243 358.392 326.905C357.736 327.567 357.218 328.353 356.867 329.216C356.517 330.08 356.342 331.004 356.352 331.936V400.428H480.774C480.553 397.271 479.892 388.829 479.157 379.946L639.297 381.047V331.936Z" fill="#54626B"/>
<path d="M629.375 323.053H367.008C363.355 323.053 360.394 326.011 360.394 329.66V491.405C360.394 495.054 363.355 498.012 367.008 498.012H629.375C633.028 498.012 635.99 495.054 635.99 491.405V329.66C635.99 326.011 633.028 323.053 629.375 323.053Z" fill="#3F6F71"/>
<path d="M626.289 332.596H370.021C366.774 332.596 364.142 335.226 364.142 338.469V488.718C364.142 491.962 366.774 494.591 370.021 494.591H626.289C629.536 494.591 632.168 491.962 632.168 488.718V338.469C632.168 335.226 629.536 332.596 626.289 332.596Z" fill="#F1F1F1"/>
<path d="M455.787 365.851H377.811C376.188 365.851 374.872 367.166 374.872 368.788V479.424C374.872 481.046 376.188 482.361 377.811 482.361H455.787C457.41 482.361 458.726 481.046 458.726 479.424V368.788C458.726 367.166 457.41 365.851 455.787 365.851Z" fill="#CECECE"/>
<path d="M626.876 365.851H475.042V381.113H626.876V365.851Z" fill="#CECECE"/>
<path d="M626.876 391.178H475.042V406.44H626.876V391.178Z" fill="#CECECE"/>
<path d="M626.876 416.504H475.042V431.766H626.876V416.504Z" fill="#CECECE"/>
<path d="M626.876 441.758H475.042V457.02H626.876V441.758Z" fill="#CECECE"/>
<path d="M626.876 467.084H475.042V482.346H626.876V467.084Z" fill="#CECECE"/>
<path d="M390.819 359.318C389.871 359.321 388.928 359.172 388.027 358.877C387.225 358.662 386.475 358.287 385.822 357.776L386.63 355.941C387.225 356.357 387.866 356.702 388.541 356.969C389.28 357.197 390.047 357.321 390.819 357.336C391.367 357.362 391.915 357.287 392.436 357.115C392.797 356.999 393.125 356.798 393.392 356.528C393.578 356.272 393.681 355.964 393.686 355.647C393.692 355.475 393.655 355.304 393.578 355.151C393.501 354.997 393.386 354.864 393.245 354.766C392.911 354.513 392.539 354.314 392.142 354.179L390.672 353.812L389.056 353.371C388.535 353.228 388.039 353.005 387.586 352.711C387.143 352.485 386.782 352.126 386.557 351.683C386.238 351.18 386.083 350.59 386.116 349.995C386.102 349.322 386.28 348.66 386.63 348.086C387.076 347.513 387.657 347.059 388.321 346.765C389.253 346.386 390.255 346.211 391.26 346.251C392.03 346.245 392.796 346.343 393.539 346.544C394.225 346.677 394.876 346.952 395.449 347.352L394.715 349.187C394.169 348.85 393.574 348.602 392.951 348.453C392.386 348.248 391.788 348.149 391.187 348.159C390.656 348.129 390.126 348.23 389.644 348.453C389.294 348.549 388.985 348.755 388.762 349.04C388.655 349.159 388.574 349.299 388.524 349.45C388.473 349.602 388.454 349.762 388.468 349.921C388.478 350.272 388.608 350.608 388.835 350.876C389.173 351.105 389.545 351.278 389.938 351.389L391.407 351.756L393.024 352.197C393.55 352.327 394.048 352.55 394.494 352.858C394.945 353.099 395.325 353.453 395.596 353.885C395.88 354.374 396.008 354.937 395.964 355.5C395.978 356.173 395.8 356.835 395.449 357.409C395.025 358.021 394.44 358.503 393.759 358.804C392.818 359.148 391.822 359.322 390.819 359.318Z" fill="#CECECE"/>
<path d="M400.741 359.097V348.38H396.552V346.397H407.355V348.38H403.093V359.097H400.741Z" fill="#CECECE"/>
<path d="M411.471 357.115H418.673V359.097H409.119V346.397H418.379V348.38H411.471V357.115ZM411.25 351.683H417.644V353.665H411.25V351.683Z" fill="#CECECE"/>
<path d="M421.245 359.097V346.398H426.537C427.523 346.384 428.501 346.585 429.403 346.985C430.177 347.268 430.827 347.814 431.24 348.526C431.699 349.249 431.93 350.093 431.902 350.949C431.909 351.802 431.68 352.64 431.24 353.371C430.805 354.066 430.162 354.605 429.403 354.913C428.495 355.286 427.518 355.461 426.537 355.427H422.568L423.67 354.326V359.097H421.245ZM423.67 354.619L422.568 353.445H426.39C427.227 353.505 428.059 353.271 428.741 352.784C429.008 352.56 429.219 352.278 429.359 351.96C429.499 351.642 429.564 351.296 429.55 350.949C429.565 350.591 429.5 350.234 429.36 349.904C429.22 349.574 429.009 349.279 428.741 349.04C428.059 348.553 427.227 348.319 426.39 348.38H422.568L423.67 347.205V354.619Z" fill="#CECECE"/>
<path d="M438.442 359.097V357.556L443.44 352.711C443.799 352.408 444.12 352.063 444.395 351.683C444.583 351.438 444.732 351.166 444.836 350.876C444.893 350.635 444.918 350.388 444.91 350.141C444.912 349.881 444.861 349.623 444.76 349.383C444.659 349.143 444.51 348.927 444.322 348.747C443.8 348.407 443.179 348.252 442.558 348.306C441.981 348.291 441.406 348.39 440.868 348.6C440.352 348.834 439.899 349.186 439.545 349.628L437.928 348.306C438.454 347.638 439.135 347.109 439.912 346.765C440.824 346.404 441.798 346.229 442.778 346.251C443.608 346.241 444.431 346.39 445.204 346.691C445.836 346.942 446.377 347.378 446.757 347.941C447.137 348.504 447.339 349.169 447.335 349.848C447.339 350.274 447.264 350.697 447.114 351.096C447.011 351.549 446.81 351.975 446.527 352.344C446.155 352.913 445.71 353.431 445.204 353.885L440.868 357.996L440.353 357.115H447.776V359.097H438.442Z" fill="#CECECE"/>
<path d="M390.525 287.302C389.676 297.539 385.001 307.081 377.43 314.031C369.859 320.982 359.947 324.832 349.664 324.815C328.204 324.815 313.065 308.298 311.301 287.302C312.643 296.518 317.262 304.944 324.314 311.037C331.365 317.13 340.377 320.483 349.701 320.483C359.024 320.483 368.036 317.13 375.087 311.037C382.139 304.944 386.758 296.518 388.1 287.302H390.525Z" fill="#909699"/>
<path d="M683.759 287.302C681.996 308.298 666.856 324.815 645.397 324.815C635.114 324.832 625.201 320.982 617.63 314.031C610.059 307.081 605.384 297.539 604.535 287.302H606.96C608.302 296.518 612.922 304.944 619.973 311.037C627.024 317.13 636.036 320.483 645.36 320.483C654.683 320.483 663.695 317.13 670.747 311.037C677.798 304.944 682.417 296.518 683.759 287.302Z" fill="#909699"/>
<path d="M390.672 283.852C390.698 285.004 390.649 286.156 390.525 287.302H388.1C388.59 283.55 388.59 279.749 388.1 275.997H389.937C390.44 278.585 390.687 281.216 390.672 283.852Z" fill="#163F41"/>
<path d="M388.468 281.65C388.475 289.192 386.278 296.573 382.148 302.887C378.018 309.201 372.133 314.174 365.215 317.197C358.297 320.22 350.646 321.161 343.2 319.904C335.755 318.648 328.838 315.249 323.298 310.124C317.758 304.999 313.835 298.371 312.01 291.052C310.185 283.733 310.538 276.042 313.025 268.92C315.511 261.798 320.024 255.556 326.01 250.958C331.996 246.36 339.195 243.607 346.724 243.036L348.635 242.889H350.766L352.677 243.036C362.418 243.776 371.52 248.167 378.157 255.328C384.794 262.489 388.477 271.891 388.468 281.65Z" fill="#3F6F71"/>
<path d="M349.664 311.601C366.224 311.601 379.648 298.191 379.648 281.65C379.648 265.108 366.224 251.698 349.664 251.698C333.103 251.698 319.679 265.108 319.679 281.65C319.679 298.191 333.103 311.601 349.664 311.601Z" fill="#F1F1F1"/>
<path d="M354.785 264V298.451H350.613V268.374H350.411L342 273.958V269.719L350.613 264H354.785Z" fill="#3F6F71"/>
<path d="M544.125 287.302C539.649 295.684 532.977 302.694 524.822 307.582C516.667 312.469 507.335 315.051 497.825 315.051C488.314 315.051 478.982 312.469 470.827 307.582C462.672 302.694 456 295.684 451.524 287.302H458.212L458.433 287.596C458.621 287.828 458.793 288.073 458.947 288.33L459.241 288.624L459.829 289.431C460.678 290.508 461.585 291.538 462.548 292.514L463.283 293.248C463.283 293.346 463.357 293.42 463.504 293.469L464.092 294.056L464.9 294.79L465.855 295.671L466.884 296.478L468.281 297.653L469.016 298.167C470.191 299.048 471.367 299.855 472.543 300.589L473.131 300.883L473.866 301.324L476.071 302.498L476.732 302.792L478.717 303.746H478.937L479.598 304.04L480.554 304.407L481.656 304.774L481.95 304.921L482.832 305.214L483.347 305.361L484.596 305.728L487.021 306.315L487.903 306.536C489.287 306.827 490.685 307.048 492.092 307.196L493.048 307.343H494.664L497.825 307.49L500.985 307.343H502.602L503.557 307.196C504.988 307.048 506.411 306.828 507.819 306.536L508.701 306.315L510.024 306.022L512.303 305.361L512.817 305.214L513.699 304.921L513.993 304.774L515.095 304.407L516.051 304.04L516.712 303.746L519.358 302.572L520.387 301.984H520.46L521.563 301.397L521.783 301.25L522.665 300.736L523.106 300.516L524.135 299.855L525.311 299.048L526.486 298.24L527.515 297.433L528.691 296.478C529.435 295.906 530.146 295.294 530.823 294.643L531.778 293.762L531.998 293.615L532.807 292.735L533.909 291.633L534.791 290.532L535.673 289.504C535.941 289.205 536.186 288.886 536.408 288.55C536.555 288.477 536.628 288.33 536.702 288.257C536.856 288 537.028 287.755 537.216 287.522L537.437 287.229L544.125 287.302Z" fill="#A2ABB0"/>
<path d="M456.449 284.659L458.213 287.302H451.525C449.634 283.711 448.155 279.919 447.115 275.997H452.186L452.774 277.539L453.436 279.007L454.244 280.695C454.387 281.028 454.559 281.347 454.758 281.65C455.052 282.237 455.346 282.898 455.714 283.485C456.081 284.072 456.228 284.219 456.449 284.659Z" fill="#163F41"/>
<path d="M548.534 275.997C547.494 279.919 546.015 283.711 544.124 287.302H537.437L538.392 285.834L539.053 284.806C539.736 283.796 540.35 282.742 540.891 281.65C541.09 281.347 541.262 281.028 541.405 280.695L542.214 279.007L542.875 277.539L543.463 275.997H548.534Z" fill="#54626B"/>
<path d="M546.55 258.966C546.555 264.782 545.509 270.551 543.463 275.997L542.876 277.539L542.214 279.007L541.406 280.695C541.263 281.028 541.091 281.347 540.891 281.65C540.35 282.742 539.737 283.796 539.054 284.806L538.393 285.834L537.437 287.302L537.217 287.596C537.028 287.828 536.856 288.073 536.702 288.33C536.629 288.403 536.555 288.55 536.408 288.624C536.187 288.959 535.941 289.278 535.673 289.578L534.791 290.606L533.909 291.707L532.807 292.808L531.999 293.689L531.778 293.836L530.823 294.717C530.147 295.367 529.435 295.98 528.692 296.552L527.516 297.506L526.487 298.314L525.311 299.121L524.135 299.929L523.106 300.589L522.665 300.81L521.783 301.324L521.563 301.47L520.46 302.058H520.387L519.358 302.645L516.712 303.82L516.051 304.113L515.095 304.48L513.993 304.847L513.699 304.994L512.817 305.288L512.303 305.435L510.025 306.095L508.702 306.389L507.746 306.609C506.363 306.906 504.965 307.127 503.557 307.27L502.602 307.417H500.985L497.825 307.563L494.665 307.417H493.048L492.092 307.27C490.685 307.127 489.286 306.906 487.903 306.609L486.948 306.389L484.596 305.802L483.347 305.435L482.832 305.288L481.951 304.994L481.657 304.847L480.554 304.48L479.599 304.113L478.937 303.82H478.717L476.733 302.865L476.071 302.572L473.866 301.397L473.131 300.957L472.543 300.663C471.368 299.929 470.192 299.121 469.016 298.24L468.281 297.726L466.811 296.552L465.856 295.744L464.9 294.863L464.092 294.129L463.43 293.542C463.357 293.469 463.283 293.395 463.283 293.322L462.549 292.588C461.586 291.611 460.678 290.582 459.829 289.504L459.241 288.697C459.094 288.624 459.021 288.477 458.947 288.403C458.794 288.147 458.622 287.901 458.433 287.669L458.212 287.376L456.449 284.733C456.228 284.292 455.934 283.925 455.714 283.558C455.493 283.191 455.052 282.31 454.758 281.723C454.559 281.421 454.387 281.101 454.244 280.769L453.435 279.08L452.774 277.612L452.186 276.07C449.467 268.807 448.525 260.999 449.438 253.298C450.351 245.597 453.093 238.225 457.436 231.797C461.779 225.369 467.597 220.07 474.405 216.343C481.213 212.615 488.814 210.567 496.575 210.368H499.074C511.76 210.712 523.814 215.979 532.677 225.051C541.54 234.124 546.517 246.289 546.55 258.966Z" fill="#3F6F71"/>
<path d="M497.825 296.625C518.647 296.625 535.526 279.765 535.526 258.966C535.526 238.167 518.647 221.306 497.825 221.306C477.003 221.306 460.123 238.167 460.123 258.966C460.123 279.765 477.003 296.625 497.825 296.625Z" fill="#F1F1F1"/>
<path d="M484 278.84V275.039L498.276 259.412C499.951 257.582 501.331 255.991 502.415 254.639C503.499 253.274 504.301 251.993 504.822 250.796C505.357 249.585 505.625 248.318 505.625 246.995C505.625 245.474 505.259 244.158 504.526 243.046C503.808 241.934 502.823 241.075 501.57 240.469C500.317 239.864 498.909 239.561 497.346 239.561C495.685 239.561 494.235 239.906 492.996 240.596C491.771 241.272 490.821 242.222 490.145 243.447C489.484 244.672 489.153 246.108 489.153 247.755H484.169C484.169 245.221 484.753 242.997 485.922 241.082C487.09 239.167 488.681 237.675 490.694 236.605C492.722 235.535 494.995 235 497.515 235C500.049 235 502.295 235.535 504.252 236.605C506.209 237.675 507.743 239.118 508.856 240.934C509.968 242.75 510.524 244.77 510.524 246.995C510.524 248.586 510.235 250.141 509.658 251.662C509.095 253.168 508.109 254.851 506.702 256.709C505.308 258.553 503.372 260.806 500.894 263.467L491.18 273.857V274.194H511.284V278.84H484Z" fill="#3F6F71"/>
<path d="M606.593 281.65C606.603 283.539 606.726 285.427 606.96 287.302H604.535C604.386 286.158 604.312 285.006 604.315 283.852C604.325 281.213 604.596 278.582 605.123 275.997H606.96C606.726 277.872 606.603 279.76 606.593 281.65Z" fill="#54626B"/>
<path d="M684.201 281.65C684.206 289.189 682.011 296.566 677.883 302.878C673.755 309.189 667.874 314.162 660.961 317.186C654.047 320.209 646.4 321.154 638.957 319.903C631.514 318.651 624.598 315.259 619.056 310.142C613.514 305.024 609.586 298.403 607.754 291.089C605.921 283.776 606.264 276.087 608.74 268.965C611.216 261.843 615.717 255.597 621.693 250.991C627.668 246.386 634.859 243.621 642.383 243.036L644.294 242.889H646.426L648.336 243.036C658.091 243.759 667.21 248.142 673.863 255.305C680.516 262.467 684.209 271.879 684.201 281.65Z" fill="#CECECE"/>
<path d="M645.323 311.601C661.883 311.601 675.308 298.191 675.308 281.65C675.308 265.108 661.883 251.698 645.323 251.698C628.763 251.698 615.338 265.108 615.338 281.65C615.338 298.191 628.763 311.601 645.323 311.601Z" fill="#F1F1F1"/>
<path d="M644.708 299.393C642.487 299.393 640.508 299.012 638.77 298.249C637.043 297.486 635.669 296.427 634.649 295.07C633.639 293.702 633.09 292.115 633 290.309H637.239C637.329 291.419 637.71 292.378 638.383 293.186C639.056 293.982 639.936 294.599 641.024 295.036C642.112 295.473 643.317 295.692 644.641 295.692C646.121 295.692 647.433 295.434 648.577 294.918C649.721 294.402 650.618 293.685 651.268 292.765C651.919 291.846 652.244 290.78 652.244 289.569C652.244 288.302 651.93 287.186 651.302 286.222C650.674 285.246 649.754 284.483 648.543 283.934C647.332 283.384 645.852 283.109 644.102 283.109H641.344V279.409H644.102C645.471 279.409 646.67 279.162 647.702 278.669C648.745 278.175 649.558 277.48 650.141 276.583C650.736 275.685 651.033 274.631 651.033 273.42C651.033 272.254 650.775 271.239 650.259 270.375C649.743 269.512 649.014 268.839 648.072 268.357C647.141 267.875 646.042 267.633 644.775 267.633C643.586 267.633 642.465 267.852 641.411 268.29C640.368 268.716 639.516 269.338 638.854 270.157C638.192 270.964 637.833 271.94 637.777 273.084H633.74C633.807 271.278 634.351 269.697 635.372 268.34C636.392 266.972 637.727 265.906 639.375 265.144C641.035 264.381 642.858 264 644.842 264C646.973 264 648.801 264.432 650.326 265.295C651.852 266.148 653.023 267.275 653.842 268.676C654.661 270.078 655.07 271.592 655.07 273.218C655.07 275.158 654.56 276.813 653.539 278.181C652.53 279.549 651.156 280.497 649.418 281.024V281.293C651.594 281.652 653.293 282.577 654.515 284.068C655.737 285.549 656.349 287.382 656.349 289.569C656.349 291.442 655.838 293.124 654.818 294.616C653.808 296.096 652.429 297.262 650.68 298.114C648.93 298.967 646.94 299.393 644.708 299.393Z" fill="#CECECE"/>
<path d="M556.912 542.99C556.912 542.99 690.3 591.441 805.757 542.99C805.757 542.99 784.885 587.844 711.687 620.145C638.488 652.445 546.109 557.085 556.912 542.99Z" fill="#113030"/>
<path d="M739.908 576.319L741.524 580.356L737.262 587.404C697.723 597.608 638.341 591.882 618.498 588.285C610.708 586.963 612.913 581.751 614.971 578.668C615.531 577.846 616.145 577.061 616.808 576.319C607.328 574.337 577.563 550.405 579.254 540.201C579.327 539.54 586.235 457.908 617.91 440.289C620.042 439.188 637.092 431.48 653.554 427.222C662.961 424.873 672.001 423.038 677.586 423.111C683.172 423.185 692.579 424.58 701.986 426.488C717.419 429.718 731.75 435.371 734.028 436.986C778.858 468.479 779.961 534.915 780.475 536.604C781.945 546.955 763.058 570.299 739.908 576.319Z" fill="#285A5B"/>
<path d="M736.894 589.386C699.634 604.288 640.399 596.286 618.498 588.285C611.076 585.642 612.913 581.751 614.971 578.668L741.524 580.356L736.894 589.386Z" fill="#1F4747"/>
<path d="M698.458 444.694C680.085 462.606 663.623 449.833 658.111 444.4C656.813 443.173 656.047 441.486 655.979 439.702C655.759 435.297 655.465 426.782 656.053 426.635C664.505 424.506 672.515 423.038 677.586 423.038C682.657 423.038 690.521 424.286 698.825 425.901C699.56 426.048 700.295 434.416 700.589 439.115C700.675 440.145 700.528 441.181 700.159 442.147C699.79 443.112 699.209 443.983 698.458 444.694Z" fill="#113030"/>
<path d="M620.483 509.735C618.425 501.734 615.926 493.879 613.207 486.097C616.808 504.45 621.879 523.39 626.656 541.449C625.587 532.451 623.967 523.527 621.806 514.727C622.161 506.397 621.866 498.052 620.924 489.768C619.821 500.779 621.071 503.569 620.483 509.735Z" fill="#113030"/>
<path d="M743.362 486.024C740.716 493.805 738.291 501.734 736.306 509.735C735.719 503.642 736.968 498.284 735.572 491.089C735.939 499.678 735.939 509.368 735.057 514.801C732.992 523.606 731.47 532.53 730.501 541.522C735.057 523.39 739.908 504.45 743.362 486.024Z" fill="#113030"/>
<path d="M697.576 439.482C694.636 446.236 688.904 450.787 678.174 450.787C667.444 450.787 661.785 444.988 658.846 439.555V403.291H697.576V439.555V439.482Z" fill="#EF9D65"/>
<path d="M697.576 431.774C692.565 436.997 685.705 440.053 678.466 440.286C671.226 440.519 664.184 437.912 658.846 433.022V403.291H697.576V431.774Z" fill="#DD8B52"/>
<path d="M678.174 435.591C696.764 435.591 711.834 414.786 711.834 389.122C711.834 363.458 696.764 342.654 678.174 342.654C659.584 342.654 644.515 363.458 644.515 389.122C644.515 414.786 659.584 435.591 678.174 435.591Z" fill="#EF9D65"/>
<path d="M665.019 378.111C671.56 380.019 671.045 380.093 692.138 385.011C703.749 387.728 704.264 376.129 705.072 378.404C705.881 380.68 709.555 403.217 709.555 403.217C711.172 394.995 713.744 386.993 714.994 378.771C716.243 370.55 719.55 349.26 703.529 341.846C693.461 337.221 705.293 332.523 702.5 333.551C679.424 342.066 703.455 330.761 695.371 331.422C689.125 331.936 685.303 335.239 683.906 334.872C682.51 334.505 685.082 319.676 682.657 323.053C675.234 333.184 670.604 334.138 669.429 333.991C669.269 333.979 669.114 333.93 668.976 333.847C668.839 333.764 668.722 333.651 668.637 333.515C668.551 333.38 668.498 333.226 668.483 333.066C668.467 332.907 668.489 332.746 668.547 332.596C671.413 326.356 670.604 324.228 670.09 324.888C668.253 327.091 666.783 329.44 664.652 331.422C662.52 333.404 659.875 335.313 657.449 337.221C649.145 343.828 640.62 353.225 639.591 364.236C639.076 369.448 640.032 374.807 641.134 379.873C641.722 382.662 642.163 392.573 644.588 394.261C647.013 395.949 647.895 390.223 647.895 388.241C647.895 387.581 648.483 384.938 650.174 379.726C652.231 373.266 661.197 377.083 665.019 378.111Z" fill="#1D282E"/>
<path d="M714.373 401.28C716.275 394.697 715.162 388.595 711.886 387.651C708.61 386.706 704.413 391.277 702.51 397.86C700.608 404.443 701.722 410.546 704.997 411.49C708.273 412.435 712.471 407.864 714.373 401.28Z" fill="#EF9D65"/>
<path d="M651.16 412.691C654.435 411.746 655.549 405.644 653.647 399.061C651.744 392.478 647.547 387.907 644.271 388.851C640.995 389.796 639.882 395.898 641.784 402.481C643.686 409.064 647.884 413.635 651.16 412.691Z" fill="#EF9D65"/>
<path d="M710.29 385.085C710.11 385.014 709.912 385.005 709.726 385.058C709.54 385.111 709.377 385.224 709.261 385.378L704.337 398.225C703.692 397.766 702.924 397.511 702.133 397.491H684.862C683.887 397.491 682.953 397.878 682.264 398.566C681.574 399.255 681.187 400.188 681.187 401.162V403.144C678.853 402.383 676.322 402.487 674.059 403.437V401.235C674.059 399.18 672.074 397.491 669.723 397.491H653.775C652.832 397.489 651.91 397.771 651.129 398.299L647.381 386.847C647.348 386.754 647.297 386.669 647.231 386.597C647.165 386.525 647.085 386.466 646.996 386.425C646.907 386.384 646.811 386.361 646.713 386.358C646.615 386.355 646.517 386.371 646.425 386.406C646.252 386.486 646.117 386.631 646.048 386.809C645.979 386.987 645.983 387.185 646.058 387.36L650.027 399.4C649.789 399.792 649.634 400.229 649.57 400.683C649.507 401.138 649.537 401.6 649.659 402.043L650.615 405.199C650.815 405.923 651.061 406.634 651.349 407.328C653.334 412.173 654.73 412.907 658.772 412.907H666.121C669.208 412.907 672.148 412.907 673.324 408.062L674.059 404.832H674.499C676.639 403.962 679.029 403.936 681.187 404.759L681.628 407.328C682.878 412.614 685.597 412.981 687.802 412.981H698.017C703.823 413.495 705.44 403.878 705.44 403.878C705.809 402.532 705.809 401.112 705.44 399.767C705.44 399.71 705.426 399.654 705.401 399.603C705.375 399.552 705.338 399.507 705.293 399.473L710.584 386.186C710.674 385.997 710.693 385.783 710.639 385.581C710.586 385.38 710.462 385.204 710.29 385.085ZM671.927 408.062C670.604 410.925 669.722 411.512 666.121 411.512H658.772C655.832 411.512 654.657 410.999 653.187 408.209C652.662 407.126 652.244 405.995 651.937 404.832L651.202 402.483C651.078 402.074 651.05 401.643 651.119 401.221C651.189 400.8 651.354 400.4 651.603 400.052C651.851 399.705 652.176 399.419 652.553 399.217C652.929 399.014 653.347 398.901 653.775 398.886H669.723C671.339 398.886 672.589 399.914 672.589 401.235C672.589 401.235 673.25 405.199 671.927 408.062ZM703.455 406.007C703.136 407.176 702.64 408.29 701.986 409.31C700.883 411.145 699.854 411.512 697.576 411.512H687.802C685.45 411.512 684.347 411.219 683.098 407.255C682.51 405.493 682.657 401.162 682.657 401.162C682.647 400.866 682.697 400.572 682.803 400.296C682.91 400.021 683.071 399.769 683.276 399.557C683.482 399.344 683.728 399.175 684.001 399.06C684.273 398.945 684.566 398.886 684.862 398.886H702.133C702.52 398.886 702.9 398.987 703.236 399.181C703.571 399.374 703.85 399.652 704.043 399.987C704.263 400.521 704.339 401.103 704.264 401.675C704.267 403.157 703.993 404.626 703.455 406.007Z" fill="#113030"/>
<path d="M694.93 625.43L636.063 597.387L627.758 620.145L689.639 639.965L694.93 625.43Z" fill="#DD8B52"/>
<path d="M737.923 658.685C733.76 659.02 729.573 658.922 725.43 658.391C703.97 655.822 677.954 644.664 677.954 644.664V635.341L687.508 624.843L689.933 622.2C689.933 622.2 744.538 626.898 752.842 634.46C761.147 642.021 760.044 656.483 737.923 658.685Z" fill="#BCBBBB"/>
<path d="M737.923 658.685C737.923 658.685 756.958 657.878 749.609 637.029C746.154 627.192 694.269 625.504 687.508 624.843L689.933 622.2C689.933 622.2 744.538 626.898 752.842 634.46C761.147 642.021 760.044 656.483 737.923 658.685Z" fill="#113030"/>
<path d="M692.138 629.908L692.432 630.275C693.409 631.584 694.042 633.116 694.273 634.732C694.504 636.348 694.326 637.996 693.754 639.525C693.241 640.864 692.443 642.076 691.416 643.078C690.388 644.079 689.155 644.846 687.802 645.324" stroke="#113030" stroke-miterlimit="10" stroke-linecap="round"/>
<path d="M696.033 630.936L696.327 631.303C697.304 632.626 697.936 634.17 698.167 635.798C698.398 637.425 698.22 639.084 697.65 640.626C697.15 641.973 696.356 643.192 695.327 644.195C694.297 645.198 693.057 645.96 691.697 646.426" stroke="#113030" stroke-miterlimit="10" stroke-linecap="round"/>
<path d="M699.781 632.037L700.075 632.404C701.077 633.715 701.725 635.26 701.957 636.893C702.188 638.526 701.996 640.19 701.398 641.727C700.907 643.071 700.116 644.286 699.084 645.278C698.053 646.271 696.808 647.014 695.445 647.453" stroke="#113030" stroke-miterlimit="10" stroke-linecap="round"/>
<path d="M675.381 621.466L722.049 599.223L731.603 621.76L670.751 644.884L665.019 627.119L675.381 621.466Z" fill="#EF9D65"/>
<path d="M540.597 541.449C544.542 539.994 548.859 539.891 552.87 541.155C558.529 542.99 562.938 547.542 567.495 551.212L580.87 561.857C589.003 568.304 597.6 574.144 606.593 579.329L613.942 583.366C623.496 588.431 633.197 593.13 643.045 597.534C648.483 600.104 656.861 602.673 662.3 605.609L657.523 647.527C657.523 647.527 610.635 636.295 577.637 619.557C556.912 609.133 538.465 592.396 528.25 570.593C528.25 570.519 528.176 570.519 528.176 570.446C522.518 558.113 530.161 545.046 540.597 541.449Z" fill="#3F6F71"/>
<path d="M656.053 658.391C651.218 659.705 646.31 660.735 641.355 661.475C631.066 663.016 617.984 663.677 610.488 658.905L610.194 658.685C600.346 651.711 597.627 642.828 606.593 638.497C610.414 637.176 620.703 634.46 626.142 634.239C606.446 640.553 614.309 661.034 631.874 660.08C634.777 659.963 637.672 659.693 640.546 659.272C645.517 658.618 650.43 657.587 655.245 656.189C680.011 649.582 685.67 642.388 686.846 638.644H686.92L687.875 638.424C687.875 638.424 691.256 648.995 656.053 658.391Z" fill="#113030"/>
<path d="M686.846 638.644C685.67 642.388 680.011 649.582 655.245 656.189C650.41 657.503 645.502 658.532 640.546 659.272C632.021 660.594 622.908 661.475 614.603 658.832C606.299 656.189 596.892 648.628 602.845 640.112C605.196 636.809 609.238 634.974 613.207 634.093C628.64 630.349 644.735 630.128 660.169 626.017C665.313 624.696 670.384 623.154 675.381 621.466C673.971 622.264 672.861 623.502 672.221 624.99C669.796 630.642 677.439 641.067 686.846 638.644Z" fill="#DDDAD9"/>
<path d="M663.696 627.706L663.402 628.073C662.419 629.393 661.783 630.937 661.551 632.566C661.32 634.195 661.502 635.856 662.079 637.396C662.593 638.727 663.392 639.929 664.42 640.918C665.449 641.908 666.681 642.66 668.032 643.122" stroke="#113030" stroke-miterlimit="10" stroke-linecap="round"/>
<path d="M659.801 628.807L659.507 629.174C658.505 630.484 657.857 632.03 657.625 633.663C657.394 635.296 657.586 636.96 658.184 638.497C658.698 639.828 659.497 641.03 660.525 642.02C661.553 643.009 662.786 643.761 664.137 644.223" stroke="#113030" stroke-miterlimit="10" stroke-linecap="round"/>
<path d="M656.053 629.908L655.759 630.275C654.743 631.564 654.086 633.099 653.854 634.723C653.621 636.347 653.822 638.003 654.436 639.525C654.933 640.862 655.716 642.074 656.732 643.076C657.748 644.078 658.971 644.845 660.315 645.324" stroke="#113030" stroke-miterlimit="10" stroke-linecap="round"/>
<path d="M820.382 541.008L818.691 540.494C816.225 539.993 813.673 540.119 811.269 540.861C805.921 542.505 800.934 545.146 796.57 548.643C777.095 563.986 768.349 572.061 746.889 583.366C737.335 588.431 727.634 593.13 717.786 597.534C712.348 600.104 704.043 602.673 698.531 605.609L699.928 633.946C699.967 635.275 700.304 636.578 700.914 637.76C701.525 638.942 702.393 639.971 703.455 640.773C708.967 644.957 717.125 651.491 717.125 651.491C717.125 651.491 757.178 637.69 793.557 613.685C815.531 599.223 832.875 579.328 835.227 569.859C838.02 558.48 830.817 544.679 820.382 541.008Z" fill="#3F6F71"/>
<path d="M740.275 591.001H621.071C620.382 590.982 619.728 590.695 619.247 590.201C618.767 589.708 618.498 589.046 618.498 588.358L608.063 579.329C607.034 578.081 607.622 576.392 610.047 576.392H610.12L749.021 576.612H749.094C751.519 576.686 752.034 578.521 751.152 579.622L742.774 588.285C742.7 589.679 741.598 591.001 740.275 591.001Z" fill="#A2ABB0"/>
<path d="M742.774 588.285H618.498L605.564 525.005C605.49 522.876 607.548 521.188 610.12 521.188L749.021 520.967C751.593 520.967 753.651 522.656 753.577 524.711L742.774 588.285Z" fill="#CECECE"/>
<path d="M679.57 562.811C689.718 562.811 697.943 560.905 697.943 558.553C697.943 556.202 689.718 554.296 679.57 554.296C669.423 554.296 661.197 556.202 661.197 558.553C661.197 560.905 669.423 562.811 679.57 562.811Z" fill="#F1F1F1"/>
</svg>
