<svg
              
              viewBox="0 0 14 14"
              fill="none"
              xmlns="http://www.w3.org/2000/svg"
            >
              <path
                fill-rule="evenodd"
                clip-rule="evenodd"
                d="M7.00013 0.5C7.35159 0.5 7.6365 0.78491 7.6365 1.13636V3.68182C7.6365 4.03327 7.35159 4.31818 7.00013 4.31818C6.64868 4.31818 6.36377 4.03327 6.36377 3.68182V1.13636C6.36377 0.78491 6.64868 0.5 7.00013 0.5Z"
                fill="#EDEDED"
              />
              <path
                fill-rule="evenodd"
                clip-rule="evenodd"
                d="M7.00013 10.6818C7.35159 10.6818 7.6365 10.9667 7.6365 11.3182V13.8636C7.6365 14.2151 7.35159 14.5 7.00013 14.5C6.64868 14.5 6.36377 14.2151 6.36377 13.8636V11.3182C6.36377 10.9667 6.64868 10.6818 7.00013 10.6818Z"
                fill="#EDEDED"
              />
              <path
                fill-rule="evenodd"
                clip-rule="evenodd"
                d="M2.05113 2.55093C2.29965 2.30242 2.70257 2.30242 2.95109 2.55093L4.752 4.35184C5.00051 4.60036 5.00051 5.00328 4.752 5.25179C4.50348 5.50031 4.10056 5.50031 3.85204 5.25179L2.05113 3.45088C1.80262 3.20237 1.80262 2.79945 2.05113 2.55093Z"
                fill="#EDEDED"
              />
              <path
                fill-rule="evenodd"
                clip-rule="evenodd"
                d="M9.2484 9.7482C9.49691 9.49969 9.89984 9.49969 10.1484 9.7482L11.9493 11.5491C12.1978 11.7976 12.1978 12.2006 11.9493 12.4491C11.7007 12.6976 11.2978 12.6976 11.0493 12.4491L9.2484 10.6482C8.99988 10.3996 8.99988 9.99672 9.2484 9.7482Z"
                fill="#EDEDED"
              />
              <path
                fill-rule="evenodd"
                clip-rule="evenodd"
                d="M0 7.5C0 7.14855 0.28491 6.86364 0.636364 6.86364H3.18182C3.53327 6.86364 3.81818 7.14855 3.81818 7.5C3.81818 7.85145 3.53327 8.13636 3.18182 8.13636H0.636364C0.28491 8.13636 0 7.85145 0 7.5Z"
                fill="#EDEDED"
              />
              <path
                fill-rule="evenodd"
                clip-rule="evenodd"
                d="M10.1816 7.5C10.1816 7.14855 10.4666 6.86364 10.818 6.86364H13.3635C13.7149 6.86364 13.9998 7.14855 13.9998 7.5C13.9998 7.85145 13.7149 8.13636 13.3635 8.13636H10.818C10.4666 8.13636 10.1816 7.85145 10.1816 7.5Z"
                fill="#EDEDED"
              />
              <path
                fill-rule="evenodd"
                clip-rule="evenodd"
                d="M4.752 9.7482C5.00051 9.99672 5.00051 10.3996 4.752 10.6482L2.95109 12.4491C2.70257 12.6976 2.29965 12.6976 2.05113 12.4491C1.80262 12.2006 1.80262 11.7976 2.05113 11.5491L3.85204 9.7482C4.10056 9.49969 4.50348 9.49969 4.752 9.7482Z"
                fill="#EDEDED"
              />
              <path
                fill-rule="evenodd"
                clip-rule="evenodd"
                d="M11.9493 2.55093C12.1978 2.79945 12.1978 3.20237 11.9493 3.45088L10.1484 5.25179C9.89984 5.50031 9.49691 5.50031 9.2484 5.25179C8.99988 5.00328 8.99988 4.60036 9.2484 4.35184L11.0493 2.55093C11.2978 2.30242 11.7007 2.30242 11.9493 2.55093Z"
                fill="#EDEDED"
              />
            </svg>
