<svg width="18" height="18" viewBox="0 0 18 18" fill="none" xmlns="http://www.w3.org/2000/svg">
<path fill-rule="evenodd" clip-rule="evenodd" d="M8.29289 13.7071C8.68342 14.0976 9.31658 14.0976 9.70711 13.7071L13.7071 9.70711C14.0976 9.31658 14.0976 8.68342 13.7071 8.29289C13.3166 7.90237 12.6834 7.90237 12.2929 8.29289L10 10.5858V1C10 0.447714 9.55229 0 9 0C8.44772 0 8 0.447714 8 0.999999L8 10.5858L5.70711 8.29289C5.31658 7.90237 4.68342 7.90237 4.29289 8.29289C3.90237 8.68342 3.90237 9.31658 4.29289 9.70711L8.29289 13.7071ZM2 13C2 12.4477 1.55228 12 1 12C0.447715 12 0 12.4477 0 13V14C0 15.0609 0.421427 16.0783 1.17157 16.8284C1.92172 17.5786 2.93913 18 4 18H14C15.0609 18 16.0783 17.5786 16.8284 16.8284C17.5786 16.0783 18 15.0609 18 14V13C18 12.4477 17.5523 12 17 12C16.4477 12 16 12.4477 16 13V14C16 14.5304 15.7893 15.0391 15.4142 15.4142C15.0391 15.7893 14.5304 16 14 16H4C3.46957 16 2.96086 15.7893 2.58579 15.4142C2.21071 15.0391 2 14.5304 2 14V13Z" fill="#AEAEAE"/>
</svg>
